HIERARCHY
ROOT Hips
{
    OFFSET 0.000000 0.000000 0.000000
    CHANNELS 6 Xposition Yposition Zposition Zrotation Xrotation Yrotation
    JOINT Spine
    {
        OFFSET 0.000005 7.889263 -0.000018
        CHANNELS 3 Zrotation Xrotation Yrotation
        JOINT Spine1
        {
            OFFSET -0.000003 20.943708 0.000015
            CHANNELS 3 Zrotation Xrotation Yrotation
            JOINT Neck
            {
                OFFSET -0.000000 22.222878 0.000006
                CHANNELS 3 Zrotation Xrotation Yrotation
                JOINT Head
                {
                    OFFSET 0.000000 14.209292 1.902201
                    CHANNELS 3 Zrotation Xrotation Yrotation
                    End Site
                    {
                        OFFSET 0.000000 19.022141 0.000000
                    }
                }
            }
            JOINT LeftShoulder
            {
                OFFSET 3.797838 16.121197 -0.677315
                CHANNELS 3 Zrotation Xrotation Yrotation
                JOINT LeftArm
                {
                    OFFSET 11.576588 0.000001 -0.000001
                    CHANNELS 3 Zrotation Xrotation Yrotation
                    JOINT LeftForeArm
                    {
                        OFFSET 29.906410 0.000015 -0.000016
                        CHANNELS 3 Zrotation Xrotation Yrotation
                        JOINT LeftHand
                        {
                            OFFSET 24.318321 -0.000008 -0.000001
                            CHANNELS 3 Zrotation Xrotation Yrotation
                            JOINT LeftHandThumb1
                            {
                                OFFSET 1.987815 -2.258879 3.162430
                                CHANNELS 3 Zrotation Xrotation Yrotation
                                JOINT LeftHandThumb2
                                {
                                    OFFSET 3.002314 -0.000008 0.000000
                                    CHANNELS 3 Zrotation Xrotation Yrotation
                                    JOINT LeftHandThumb3
                                    {
                                        OFFSET 2.566099 0.000003 0.000002
                                        CHANNELS 3 Zrotation Xrotation Yrotation
                                        End Site
                                        {
                                            OFFSET 2.440626 0.000000 0.000000
                                        }
                                    }
                                }
                            }
                            JOINT LeftHandIndex1
                            {
                                OFFSET 8.131962 -0.000002 3.162430
                                CHANNELS 3 Zrotation Xrotation Yrotation
                                JOINT LeftHandIndex2
                                {
                                    OFFSET 4.517782 0.000004 0.000004
                                    CHANNELS 3 Zrotation Xrotation Yrotation
                                    JOINT LeftHandIndex3
                                    {
                                        OFFSET 2.258868 -0.000002 -0.000006
                                        CHANNELS 3 Zrotation Xrotation Yrotation
                                        End Site
                                        {
                                            OFFSET 2.148437 0.000000 0.000000
                                        }
                                    }
                                }
                            }
                            JOINT LeftHandMiddle1
                            {
                                OFFSET 8.131986 -0.000003 1.048133
                                CHANNELS 3 Zrotation Xrotation Yrotation
                                JOINT LeftHandMiddle2
                                {
                                    OFFSET 4.969554 0.000002 0.000007
                                    CHANNELS 3 Zrotation Xrotation Yrotation
                                    JOINT LeftHandMiddle3
                                    {
                                        OFFSET 2.710641 -0.000003 -0.000003
                                        CHANNELS 3 Zrotation Xrotation Yrotation
                                        End Site
                                        {
                                            OFFSET 2.578118 0.000000 0.000000
                                        }
                                    }
                                }
                            }
                            JOINT LeftHandRing1
                            {
                                OFFSET 7.680179 -0.000003 -1.048122
                                CHANNELS 3 Zrotation Xrotation Yrotation
                                JOINT LeftHandRing2
                                {
                                    OFFSET 4.517781 0.000004 0.000004
                                    CHANNELS 3 Zrotation Xrotation Yrotation
                                    JOINT LeftHandRing3
                                    {
                                        OFFSET 2.258869 -0.000001 -0.000006
                                        CHANNELS 3 Zrotation Xrotation Yrotation
                                        End Site
                                        {
                                            OFFSET 2.148437 0.000000 0.000000
                                        }
                                    }
                                }
                            }
                            JOINT LeftHandPinky1
                            {
                                OFFSET 7.228428 -0.000001 -3.162421
                                CHANNELS 3 Zrotation Xrotation Yrotation
                                JOINT LeftHandPinky2
                                {
                                    OFFSET 3.614189 0.000000 -0.000007
                                    CHANNELS 3 Zrotation Xrotation Yrotation
                                    JOINT LeftHandPinky3
                                    {
                                        OFFSET 1.807095 -0.000001 -0.000004
                                        CHANNELS 3 Zrotation Xrotation Yrotation
                                        End Site
                                        {
                                            OFFSET 1.718745 0.000000 0.000000
                                        }
                                    }
                                }
                            }
                        }
                    }
                }
            }
            JOINT RightShoulder
            {
                OFFSET -3.797830 16.121197 -0.677299
                CHANNELS 3 Zrotation Xrotation Yrotation
                JOINT RightArm
                {
                    OFFSET -11.576583 -0.000001 -0.000013
                    CHANNELS 3 Zrotation Xrotation Yrotation
                    JOINT RightForeArm
                    {
                        OFFSET -29.906422 0.000009 0.000013
                        CHANNELS 3 Zrotation Xrotation Yrotation
                        JOINT RightHand
                        {
                            OFFSET -24.318344 0.000016 0.000009
                            CHANNELS 3 Zrotation Xrotation Yrotation
                            JOINT RightHandThumb1
                            {
                                OFFSET -1.987817 -2.258877 3.162438
                                CHANNELS 3 Zrotation Xrotation Yrotation
                                JOINT RightHandThumb2
                                {
                                    OFFSET -3.002301 -0.000006 0.000005
                                    CHANNELS 3 Zrotation Xrotation Yrotation
                                    JOINT RightHandThumb3
                                    {
                                        OFFSET -2.566068 0.000003 -0.000004
                                        CHANNELS 3 Zrotation Xrotation Yrotation
                                        End Site
                                        {
                                            OFFSET -2.440626 0.000000 0.000000
                                        }
                                    }
                                }
                            }
                            JOINT RightHandIndex1
                            {
                                OFFSET -8.131976 -0.000003 3.162441
                                CHANNELS 3 Zrotation Xrotation Yrotation
                                JOINT RightHandIndex2
                                {
                                    OFFSET -4.517741 0.000003 0.000000
                                    CHANNELS 3 Zrotation Xrotation Yrotation
                                    JOINT RightHandIndex3
                                    {
                                        OFFSET -2.258893 -0.000001 0.000007
                                        CHANNELS 3 Zrotation Xrotation Yrotation
                                        End Site
                                        {
                                            OFFSET -2.148437 0.000000 0.000000
                                        }
                                    }
                                }
                            }
                            JOINT RightHandMiddle1
                            {
                                OFFSET -8.131956 -0.000006 1.048121
                                CHANNELS 3 Zrotation Xrotation Yrotation
                                JOINT RightHandMiddle2
                                {
                                    OFFSET -4.969538 0.000001 0.000005
                                    CHANNELS 3 Zrotation Xrotation Yrotation
                                    JOINT RightHandMiddle3
                                    {
                                        OFFSET -2.710644 0.000002 0.000000
                                        CHANNELS 3 Zrotation Xrotation Yrotation
                                        End Site
                                        {
                                            OFFSET -2.578118 0.000000 0.000000
                                        }
                                    }
                                }
                            }
                            JOINT RightHandRing1
                            {
                                OFFSET -7.680204 -0.000001 -1.048112
                                CHANNELS 3 Zrotation Xrotation Yrotation
                                JOINT RightHandRing2
                                {
                                    OFFSET -4.517741 0.000004 0.000000
                                    CHANNELS 3 Zrotation Xrotation Yrotation
                                    JOINT RightHandRing3
                                    {
                                        OFFSET -2.258893 -0.000002 0.000006
                                        CHANNELS 3 Zrotation Xrotation Yrotation
                                        End Site
                                        {
                                            OFFSET -2.148437 0.000000 0.000000
                                        }
                                    }
                                }
                            }
                            JOINT RightHandPinky1
                            {
                                OFFSET -7.228434 -0.000004 -3.162422
                                CHANNELS 3 Zrotation Xrotation Yrotation
                                JOINT RightHandPinky2
                                {
                                    OFFSET -3.614192 0.000003 0.000000
                                    CHANNELS 3 Zrotation Xrotation Yrotation
                                    JOINT RightHandPinky3
                                    {
                                        OFFSET -1.807096 0.000001 0.000001
                                        CHANNELS 3 Zrotation Xrotation Yrotation
                                        End Site
                                        {
                                            OFFSET -1.718745 0.000000 0.000000
                                        }
                                    }
                                }
                            }
                        }
                    }
                }
            }
        }
    }
    JOINT LeftUpLeg
    {
        OFFSET 9.511073 -0.000001 0.000009
        CHANNELS 3 Zrotation Xrotation Yrotation
        JOINT LeftLeg
        {
            OFFSET 0.000004 -43.875637 0.000011
            CHANNELS 3 Zrotation Xrotation Yrotation
            JOINT LeftFoot
            {
                OFFSET 0.000007 -35.354156 -0.000013
                CHANNELS 3 Zrotation Xrotation Yrotation
                JOINT LeftToeBase
                {
                    OFFSET 0.000004 -6.182193 14.266595
                    CHANNELS 3 Zrotation Xrotation Yrotation
                    End Site
                    {
                        OFFSET 0.000000 0.000000 3.804428
                    }
                }
            }
        }
    }
    JOINT RightUpLeg
    {
        OFFSET -9.511072 0.000001 -0.000009
        CHANNELS 3 Zrotation Xrotation Yrotation
        JOINT RightLeg
        {
            OFFSET -0.000004 -43.875633 0.000007
            CHANNELS 3 Zrotation Xrotation Yrotation
            JOINT RightFoot
            {
                OFFSET -0.000006 -35.354145 0.000010
                CHANNELS 3 Zrotation Xrotation Yrotation
                JOINT RightToeBase
                {
                    OFFSET -0.000004 -6.182193 14.266592
                    CHANNELS 3 Zrotation Xrotation Yrotation
                    End Site
                    {
                        OFFSET 0.000000 0.000000 3.804428
                    }
                }
            }
        }
    }
}
MOTION
Frames:    4
Frame Time:    0.002778
7.325418    91.776566    605.710083    4.193153    -9.471450    -162.148178    -0.355000    5.787511    -0.509527    -1.774994    5.784864    -0.366361    5.211746    -0.517273    -16.658794    5.211746    -0.517273    -16.658792    2.074195    -2.954819    -1.883793    -57.297043    8.698590    -21.609602    -46.806206    18.290815    -90.197395    22.114120    3.925662    10.829190    47.448208    38.866428    -34.355030    -34.999992    -0.000002    -0.000001    -0.000000    0.000000    -0.000000    0.000004    9.999997    -0.000007    -0.000000    0.000000    -0.000000    -0.000000    0.000000    -0.000000    -0.000000    0.000000    -0.000000    -0.000000    0.000000    -0.000000    -0.000000    0.000000    -0.000000    -0.000000    0.000000    -0.000000    -0.000000    0.000000    -0.000000    -0.000000    0.000000    -0.000000    0.000003    -10.000001    -0.000003    -0.000000    0.000000    -0.000000    -0.000000    0.000000    -0.000000    -8.435573    0.958466    2.484227    65.170006    5.069525    8.052997    10.378362    22.403355    69.915016    -61.870018    14.413250    -7.608722    -47.448219    38.866440    34.355030    35.000008    0.000002    -0.000005    -0.000000    0.000000    -0.000000    -0.000003    9.999999    -0.000003    -0.000000    0.000000    -0.000000    -0.000000    0.000000    -0.000000    -0.000000    0.000000    -0.000000    -0.000000    0.000000    -0.000000    -0.000000    0.000000    -0.000000    -0.000000    0.000000    -0.000000    -0.000000    0.000000    -0.000000    -0.000000    0.000000    -0.000000    -0.000000    -9.999999    -0.000003    -0.000000    0.000000    -0.000000    -0.000000    0.000000    -0.000000    14.715529    -24.291111    0.772308    -0.000001    24.445126    0.000003    -12.560819    -11.679302    -0.831368    -0.000000    -1.214010    -0.000001    -12.656906    -25.324547    -3.114229    0.000002    32.767952    -0.000003    14.633453    -13.879421    -18.124306    -0.000000    -3.858479    0.000000    
7.358993    91.746658    605.738953    4.188009    -9.494522    -162.148682    -0.354420    5.823365    -0.545292    -1.772097    5.820712    -0.401471    5.228345    -0.454411    -16.607662    5.228344    -0.454413    -16.607662    2.100809    -2.929491    -1.896185    -57.288521    8.629143    -21.690847    -46.804455    18.283428    -90.196800    22.127735    3.919309    10.806884    47.448189    38.866428    -34.355015    -34.999981    -0.000001    -0.000015    -0.000000    0.000000    -0.000000    -0.000007    9.999991    0.000004    -0.000000    0.000000    -0.000000    -0.000000    0.000000    -0.000000    -0.000000    0.000000    -0.000000    -0.000000    0.000000    -0.000000    -0.000000    0.000000    -0.000000    -0.000000    0.000000    -0.000000    -0.000000    0.000000    -0.000000    -0.000000    0.000000    -0.000000    -0.000003    -10.000003    0.000003    -0.000000    0.000000    -0.000000    -0.000000    0.000000    -0.000000    -8.404213    0.901768    2.525242    65.196449    5.002103    7.793022    10.082403    22.604177    70.265793    -61.735199    14.509665    -7.698098    -47.448212    38.866428    34.355042    35.000004    -0.000003    0.000003    -0.000000    0.000000    -0.000000    0.000001    10.000002    0.000006    -0.000000    0.000000    -0.000000    -0.000000    0.000000    -0.000000    -0.000000    0.000000    -0.000000    -0.000000    0.000000    -0.000000    -0.000000    0.000000    -0.000000    -0.000000    0.000000    -0.000000    -0.000000    0.000000    -0.000000    -0.000000    0.000000    -0.000000    0.000006    -10.000002    0.000008    -0.000000    0.000000    -0.000000    -0.000000    0.000000    -0.000000    14.727144    -24.411579    0.772853    0.000001    24.606115    0.000003    -12.561728    -11.730374    -0.834549    -0.000000    -1.214933    -0.000001    -12.674950    -25.468861    -3.140463    0.000000    32.981434    0.000001    14.655998    -13.953135    -18.081116    -0.000000    -3.872115    0.000000    
7.392476    91.716873    605.771423    4.177413    -9.514878    -162.144653    -0.353529    5.865680    -0.586035    -1.767640    5.863018    -0.441542    5.241993    -0.386741    -16.570564    5.241992    -0.386743    -16.570564    2.130170    -2.912743    -1.908981    -57.284477    8.578821    -21.769695    -46.840263    18.272894    -90.207764    22.164145    3.917726    10.785119    47.448189    38.866432    -34.355038    -34.999981    0.000005    0.000012    -0.000000    0.000000    -0.000000    -0.000007    9.999990    0.000004    -0.000000    0.000000    -0.000000    -0.000000    0.000000    -0.000000    -0.000000    0.000000    -0.000000    -0.000000    0.000000    -0.000000    -0.000000    0.000000    -0.000000    -0.000000    0.000000    -0.000000    -0.000000    0.000000    -0.000000    -0.000000    0.000000    -0.000000    0.000000    -9.999999    0.000000    -0.000000    0.000000    -0.000000    -0.000000    0.000000    -0.000000    -8.370461    0.859448    2.570438    65.211685    4.930619    7.548852    9.678463    22.828691    70.608498    -61.722500    14.566957    -7.727602    -47.448223    38.866428    34.355045    35.000008    -0.000002    -0.000006    -0.000000    0.000000    -0.000000    -0.000000    10.000003    0.000004    -0.000000    0.000000    -0.000000    -0.000000    0.000000    -0.000000    -0.000000    0.000000    -0.000000    -0.000000    0.000000    -0.000000    -0.000000    0.000000    -0.000000    -0.000000    0.000000    -0.000000    -0.000000    0.000000    -0.000000    -0.000000    0.000000    -0.000000    0.000002    -10.000000    -0.000001    -0.000000    0.000000    -0.000000    -0.000000    0.000000    -0.000000    14.731258    -24.531536    0.766151    -0.000001    24.765936    0.000002    -12.562753    -11.776592    -0.839190    0.000000    -1.210612    0.000002    -12.698694    -25.611658    -3.168341    0.000001    33.195541    -0.000000    14.668605    -14.017981    -18.041464    -0.000000    -3.882420    0.000000    
7.430593    91.680252    605.801331    4.170444    -9.535227    -162.146301    -0.353922    5.904215    -0.622534    -1.769608    5.901534    -0.476931    5.258813    -0.319930    -16.519117    5.258814    -0.319930    -16.519121    2.163861    -2.892385    -1.917655    -57.268055    8.540280    -21.850515    -46.849476    18.260925    -90.216171    22.228502    3.922797    10.764015    47.448231    38.866428    -34.355034    -35.000015    -0.000004    -0.000005    -0.000000    0.000000    -0.000000    -0.000003    9.999999    -0.000003    -0.000000    0.000000    -0.000000    -0.000000    0.000000    -0.000000    -0.000000    0.000000    -0.000000    -0.000000    0.000000    -0.000000    -0.000000    0.000000    -0.000000    -0.000000    0.000000    -0.000000    -0.000000    0.000000    -0.000000    -0.000000    0.000000    -0.000000    0.000000    -10.000001    0.000000    -0.000000    0.000000    -0.000000    -0.000000    0.000000    -0.000000    -8.340739    0.804241    2.616436    65.238876    4.890619    7.325195    9.237975    23.086596    70.983871    -61.619282    14.575168    -7.760533    -47.448223    38.866428    34.355038    34.999992    0.000009    0.000007    -0.000000    0.000000    -0.000000    -0.000001    10.000002    0.000009    -0.000000    0.000000    -0.000000    -0.000000    0.000000    -0.000000    -0.000000    0.000000    -0.000000    -0.000000    0.000000    -0.000000    -0.000000    0.000000    -0.000000    -0.000000    0.000000    -0.000000    -0.000000    0.000000    -0.000000    -0.000000    0.000000    -0.000000    0.000004    -9.999998    0.000008    -0.000000    0.000000    -0.000000    -0.000000    0.000000    -0.000000    14.746809    -24.655333    0.770038    0.000000    24.939636    -0.000000    -12.576197    -11.838208    -0.849725    0.000000    -1.212783    0.000002    -12.714401    -25.760700    -3.192314    -0.000001    33.421135    -0.000000    14.679483    -14.098868    -18.001406    -0.000000    -3.889482    -0.000000    
